# xmcd
#
# Track frame offsets: 
#        150
#        12234
#        30947
#        45084
#        62006
#        73856
#        101006
#        116081
#        127078
#        144984
#        157846
#        176090
#        192084
#        203582
#        235133
#        247326
#
# Disc length: 3510 seconds
#
# Revision: 1
# Processed by: cddbd v1.5.2PL0 Copyright (c) Steve Scherf et al.
# Submitted via: ExactAudioCopy v0.99pb5
#
DISCID=d60db410
DTITLE=Various Artist - <Extreme Sound >
DYEAR=2009
DGENRE=Folk
TTITLE0=There¡¯s No Business Like Show Business - Clusone 3
TTITLE1=Sunshine Love - Janet Seidel
TTITLE2=Black Cat Whit Cat - The Bass Gan
TTITLE3=Bella Ciao (trad.) - Lucilla Galeazzi, Vincent Courtois, Miche
TTITLE3=l Godard
TTITLE4=ªªµ£µu²Ã - ¹ù¨R
TTITLE5=Ave Maria - Inessa Galante
TTITLE6=Samba - Jean Claude Kerinec , Staff Elmeddah
TTITLE7=Hodoo - Urna Chahartigchi
TTITLE8=El Condor Pasa - Ignacio Alderete
TTITLE9=U¡¯n home et une femme - Janet Seidel
TTITLE10=Zorbass (0 Zorbas) - The Bass Gang
TTITLE11=Le Cose Che Sei Per Me - Carmel Conway
TTITLE12=Ektalpuri - Transformation
TTITLE13=Over The Rainbow - Axinia Schonfeld
TTITLE14=Beauty and the Beast - Nia Jenkins
TTITLE15=Beautiful Face - Carmel Conway
EXTD=
EXTT0=
EXTT1=
EXTT2=
EXTT3=
EXTT4=
EXTT5=
EXTT6=
EXTT7=
EXTT8=
EXTT9=
EXTT10=
EXTT11=
EXTT12=
EXTT13=
EXTT14=
EXTT15=
PLAYORDER=
